<svg xmlns="http://www.w3.org/2000/svg" viewBox="0 0 1200 630" width="1200" height="630">
  <rect width="1200" height="630" fill="#ffffff"/>
  <rect x="40" y="40" width="1120" height="550" rx="32" fill="#fafafa" stroke="#ececf0" stroke-width="2"/>

  <g transform="translate(110 120)">
    <rect width="120" height="120" rx="28" fill="#030213"/>
    <g style="color:#ffffff" transform="translate(24 24) scale(2)">
      <circle fill="currentColor" opacity="0.5" cx="13" cy="33" r="3"/>
      <circle fill="currentColor" opacity="0.5" cx="32" cy="33" r="3"/>
      <path fill="currentColor" opacity="0.5" d="M13 32h19v2H13z"/>
      <path fill="currentColor" opacity="0.7" d="M20 15.502c0-1.381 1.119-1.5 2.5-1.5s2.5.119 2.5 1.5V33.5a2.5 2.5 0 1 1-5 0V15.502z"/>
      <path fill="currentColor" opacity="0.5" d="M27 15.002a2 2 0 0 1-2 2h-5a2 2 0 0 1-2-2c0-1.105.896-1 2-1h5c1.104 0 2-.104 2 1z"/>
      <path fill="currentColor" opacity="0.85" d="M28 27a2 2 0 0 1-2 2h-7a2 2 0 0 1-2-2v-5a2 2 0 0 1 2-2h7a2 2 0 0 1 2 2v5zm0-22a2 2 0 0 1-2 2h-7a2 2 0 0 1-2-2V4a2 2 0 0 1 2-2h7a2 2 0 0 1 2 2v1z"/>
      <path fill="currentColor" opacity="0.85" d="M13 22a2 2 0 0 1-2-2V7a2 2 0 0 1 2-2h15V4a4 4 0 0 0-4-4H7a4 4 0 0 0-4 4v19a4 4 0 0 0 4 4h14a4 4 0 0 0 4-4v-1H13z"/>
      <path fill="currentColor" d="M9 20a2 2 0 0 1-4 0V7a2 2 0 0 1 4 0v13z"/>
    </g>
  </g>

  <g font-family="-apple-system, BlinkMacSystemFont, 'Segoe UI', Roboto, Helvetica, Arial, sans-serif">
    <text x="262" y="206" font-size="72" font-weight="800" fill="#030213">Image Optimizer</text>
    <text x="110" y="340" font-size="36" fill="#52525b">Optimize and compress SVG, PNG, JPG and GIF images,</text>
    <text x="110" y="390" font-size="36" fill="#52525b">right in your browser. Fully client-side, no uploads.</text>

    <g font-size="30" font-weight="600" fill="#030213" text-anchor="middle">
      <rect x="110" y="452" width="120" height="62" rx="31" fill="#ffffff" stroke="#e4e4e9" stroke-width="2"/><text x="170" y="492">SVG</text>
      <rect x="246" y="452" width="120" height="62" rx="31" fill="#ffffff" stroke="#e4e4e9" stroke-width="2"/><text x="306" y="492">PNG</text>
      <rect x="382" y="452" width="120" height="62" rx="31" fill="#ffffff" stroke="#e4e4e9" stroke-width="2"/><text x="442" y="492">JPG</text>
      <rect x="518" y="452" width="120" height="62" rx="31" fill="#ffffff" stroke="#e4e4e9" stroke-width="2"/><text x="578" y="492">GIF</text>
    </g>

    <text x="110" y="568" font-size="28" fill="#9a9aa3">image-optimizer.tamaskiraly.com</text>
  </g>
</svg>
